<?xml version="1.0" standalone="no"?>
<!DOCTYPE svg PUBLIC "-//W3C//DTD SVG 20010904//EN"
 "http://www.w3.org/TR/2001/REC-SVG-20010904/DTD/svg10.dtd">
<svg version="1.0" xmlns="http://www.w3.org/2000/svg"
 width="512.000000pt" height="512.000000pt" viewBox="0 0 512.000000 512.000000"
 preserveAspectRatio="xMidYMid meet">

<g transform="translate(0.000000,512.000000) scale(0.100000,-0.100000)"
fill="#000000" stroke="none">
<path d="M535 5010 c-86 -10 -141 -27 -215 -66 -134 -70 -243 -200 -291 -345
l-24 -74 0 -1775 0 -1775 23 -78 c82 -285 289 -488 577 -569 80 -22 81 -22
905 -23 l825 0 43 23 c62 33 102 100 102 171 0 72 -29 130 -82 167 l-41 29
-816 6 c-890 6 -855 3 -950 64 -54 34 -118 100 -142 147 -50 99 -49 53 -49
1525 l0 1373 2155 0 2155 0 0 -529 0 -529 28 -53 c22 -43 38 -59 82 -82 47
-25 63 -28 108 -24 65 7 115 37 150 90 l27 41 0 900 0 901 -24 74 c-30 92
-104 205 -174 266 -61 53 -158 106 -242 131 -57 17 -163 18 -2065 20 -1103 1
-2032 -2 -2065 -6z m2597 -396 c3 -3 -1 -26 -9 -52 -16 -53 -19 -234 -5 -272
5 -14 12 -37 16 -52 l6 -28 -1370 0 -1370 0 0 123 c0 137 13 179 68 231 60 56
21 55 1393 55 696 1 1268 -1 1271 -5z m658 -19 c93 -47 134 -158 95 -253 -75
-179 -333 -155 -375 35 -36 156 137 289 280 218z m786 4 c38 -12 88 -63 108
-111 54 -128 -44 -269 -186 -268 -188 1 -266 239 -116 354 56 42 112 49 194
25z"/>
<path d="M3795 2493 c-420 -53 -759 -292 -947 -668 -81 -162 -119 -328 -119
-527 0 -441 237 -836 632 -1052 270 -148 638 -179 934 -80 335 112 612 373
739 696 125 319 112 654 -39 964 -174 358 -499 596 -900 659 -83 14 -228 17
-300 8z m315 -416 c64 -18 158 -53 180 -67 12 -8 -95 -119 -525 -550 l-540
-541 -32 68 c-90 188 -87 451 7 652 63 134 184 270 309 345 69 43 198 92 274
106 71 12 260 5 327 -13z m520 -406 c81 -159 108 -352 74 -519 -77 -379 -395
-642 -774 -643 -150 0 -248 23 -377 89 l-53 27 547 547 c301 301 550 545 555
542 5 -3 17 -22 28 -43z"/>
</g>
</svg>
